<svg width="166" height="88" viewBox="0 0 166 88" fill="none" xmlns="http://www.w3.org/2000/svg">
<rect x="0.5" y="0.5" width="165" height="87" rx="11.5" fill="white"/>
<rect x="0.5" y="0.5" width="165" height="87" rx="11.5" stroke="#E4E4E7"/>
<path d="M65.064 24.9864C68.3702 21.6802 73.7306 21.6802 77.0368 24.9864L83.0232 30.9728L77.0368 36.9591C73.7306 40.2653 68.3702 40.2653 65.064 36.9591V36.9591C61.7578 33.653 61.7578 28.2926 65.064 24.9864V24.9864Z" stroke="black" stroke-width="2"/>
<path d="M100.936 37.0136C97.6298 40.3198 92.2694 40.3198 88.9632 37.0136L82.9768 31.0272L88.9632 25.0409C92.2694 21.7347 97.6298 21.7347 100.936 25.0409V25.0409C104.242 28.347 104.242 33.7074 100.936 37.0136V37.0136Z" stroke="black" stroke-width="2"/>
<path d="M56.3591 67L59.9911 55.48H62.8151L66.4471 67H64.4631L61.1671 56.664H61.5991L58.3431 67H56.3591ZM58.3831 64.504V62.704H64.4311V64.504H58.3831ZM68.0534 67V55.24H69.9814V67H68.0534ZM74.2178 67L71.5778 58.344L73.4658 58.36L75.1538 63.904L76.8658 58.36H78.4898L80.1938 63.904L81.8898 58.36H83.7778L81.1378 67H79.6338L77.6738 61.056L75.7218 67H74.2178ZM87.1532 67.24C86.5292 67.24 86.0012 67.1227 85.5692 66.888C85.1372 66.648 84.8092 66.3307 84.5852 65.936C84.3665 65.5413 84.2572 65.1067 84.2572 64.632C84.2572 64.216 84.3265 63.8427 84.4652 63.512C84.6039 63.176 84.8172 62.888 85.1052 62.648C85.3932 62.4027 85.7665 62.2027 86.2252 62.048C86.5719 61.936 86.9772 61.8347 87.4412 61.744C87.9105 61.6533 88.4172 61.5707 88.9612 61.496C89.5105 61.416 90.0839 61.3307 90.6812 61.24L89.9932 61.632C89.9985 61.0347 89.8652 60.5947 89.5932 60.312C89.3212 60.0293 88.8625 59.888 88.2172 59.888C87.8279 59.888 87.4519 59.9787 87.0892 60.16C86.7265 60.3413 86.4732 60.6533 86.3292 61.096L84.5692 60.544C84.7825 59.8133 85.1879 59.2267 85.7852 58.784C86.3879 58.3413 87.1985 58.12 88.2172 58.12C88.9852 58.12 89.6599 58.2453 90.2412 58.496C90.8279 58.7467 91.2625 59.1573 91.5452 59.728C91.6999 60.032 91.7932 60.344 91.8252 60.664C91.8572 60.9787 91.8732 61.3227 91.8732 61.696V67H90.1852V65.128L90.4652 65.432C90.0759 66.056 89.6199 66.5147 89.0972 66.808C88.5799 67.096 87.9319 67.24 87.1532 67.24ZM87.5372 65.704C87.9745 65.704 88.3479 65.6267 88.6572 65.472C88.9665 65.3173 89.2119 65.128 89.3932 64.904C89.5799 64.68 89.7052 64.4693 89.7692 64.272C89.8705 64.0267 89.9265 63.7467 89.9372 63.432C89.9532 63.112 89.9612 62.8533 89.9612 62.656L90.5532 62.832C89.9719 62.9227 89.4732 63.0027 89.0572 63.072C88.6412 63.1413 88.2839 63.208 87.9852 63.272C87.6865 63.3307 87.4225 63.3973 87.1932 63.472C86.9692 63.552 86.7799 63.6453 86.6252 63.752C86.4705 63.8587 86.3505 63.9813 86.2652 64.12C86.1852 64.2587 86.1452 64.4213 86.1452 64.608C86.1452 64.8213 86.1985 65.0107 86.3052 65.176C86.4119 65.336 86.5665 65.464 86.7692 65.56C86.9772 65.656 87.2332 65.704 87.5372 65.704ZM94.6076 70.84L96.2716 66.272L96.3036 67.616L92.5356 58.36H94.5436L97.2156 65.208H96.7036L99.3036 58.36H101.232L96.4156 70.84H94.6076ZM105.761 67.24C104.694 67.24 103.827 67 103.161 66.52C102.494 66.04 102.089 65.3653 101.945 64.496L103.913 64.192C104.014 64.6187 104.238 64.9547 104.585 65.2C104.931 65.4453 105.369 65.568 105.897 65.568C106.361 65.568 106.718 65.4773 106.969 65.296C107.225 65.1093 107.353 64.856 107.353 64.536C107.353 64.3387 107.305 64.1813 107.209 64.064C107.118 63.9413 106.915 63.824 106.601 63.712C106.286 63.6 105.803 63.4587 105.153 63.288C104.427 63.096 103.851 62.8907 103.425 62.672C102.998 62.448 102.691 62.184 102.505 61.88C102.318 61.576 102.225 61.208 102.225 60.776C102.225 60.2373 102.366 59.768 102.649 59.368C102.931 58.968 103.326 58.6613 103.833 58.448C104.339 58.2293 104.937 58.12 105.625 58.12C106.297 58.12 106.891 58.224 107.409 58.432C107.931 58.64 108.353 58.936 108.673 59.32C108.993 59.704 109.19 60.1547 109.265 60.672L107.297 61.024C107.249 60.656 107.081 60.3653 106.793 60.152C106.51 59.9387 106.131 59.8187 105.657 59.792C105.203 59.7653 104.838 59.8347 104.561 60C104.283 60.16 104.145 60.3867 104.145 60.68C104.145 60.8453 104.201 60.9867 104.313 61.104C104.425 61.2213 104.649 61.3387 104.985 61.456C105.326 61.5733 105.833 61.7173 106.505 61.888C107.193 62.064 107.742 62.2667 108.153 62.496C108.569 62.72 108.867 62.9893 109.049 63.304C109.235 63.6187 109.329 64 109.329 64.448C109.329 65.3173 109.011 66 108.377 66.496C107.747 66.992 106.875 67.24 105.761 67.24Z" fill="#1E293B"/>
</svg>
