<svg xmlns="http://www.w3.org/2000/svg" viewBox="0 0 533.5 544.3" width="20" height="20">
  <path fill="#4285F4" d="M533.5 278.4c0-18.3-1.5-36-4.3-53.2H272v100.9h146.9c-6.4 34.4-25.3 63.6-54 83.1v68.6h87.3c51.1-47.1 81.3-116.5 81.3-199.4z"></path>
  <path fill="#34A853" d="M272 544.3c73.4 0 134.9-24.4 179.8-66.3l-87.3-68.6c-24.2 16.2-55.1 25.6-92.5 25.6-71 0-131.2-47.9-152.8-112.1H31.7v70.6c44.9 89.4 137.6 150.8 240.3 150.8z"></path>
  <path fill="#FBBC04" d="M119.2 322.9c-10.2-30.4-10.2-63.1 0-93.5V158.8H31.7c-37.2 74.3-37.2 161.9 0 236.2l87.5-72.1z"></path>
  <path fill="#EA4335" d="M272 107.2c39.9 0 75.8 13.7 104.2 40.5l78.1-78.1C406.8 24.3 345.3 0 272 0 169.3 0 76.6 61.5 31.7 150.8l87.5 72.1C140.8 155.1 201 107.2 272 107.2z"></path>
</svg>
