<svg width="166" height="88" viewBox="0 0 166 88" fill="none" xmlns="http://www.w3.org/2000/svg">
<rect x="0.5" y="0.5" width="165" height="87" rx="11.5" fill="white"/>
<rect x="0.5" y="0.5" width="165" height="87" rx="11.5" stroke="#E4E4E7"/>
<circle cx="83" cy="29" r="11" stroke="black" stroke-width="2"/>
<line x1="74.1632" y1="21.4157" x2="90.5842" y2="37.8368" stroke="black" stroke-width="2"/>
<path d="M61.4481 65V53.48H63.4001L68.7441 61.6V53.48H70.6961V65H68.7441L63.4001 56.88V65H61.4481ZM76.8605 65.24C75.9858 65.24 75.2178 65.0507 74.5565 64.672C73.8952 64.2933 73.3778 63.768 73.0045 63.096C72.6365 62.424 72.4525 61.6507 72.4525 60.776C72.4525 59.832 72.6338 59.0133 72.9965 58.32C73.3592 57.6213 73.8632 57.08 74.5085 56.696C75.1538 56.312 75.9005 56.12 76.7485 56.12C77.6445 56.12 78.4045 56.3307 79.0285 56.752C79.6578 57.168 80.1245 57.7573 80.4285 58.52C80.7325 59.2827 80.8472 60.1813 80.7725 61.216H78.8605V60.512C78.8552 59.5733 78.6898 58.888 78.3645 58.456C78.0392 58.024 77.5272 57.808 76.8285 57.808C76.0392 57.808 75.4525 58.0533 75.0685 58.544C74.6845 59.0293 74.4925 59.7413 74.4925 60.68C74.4925 61.5547 74.6845 62.232 75.0685 62.712C75.4525 63.192 76.0125 63.432 76.7485 63.432C77.2232 63.432 77.6312 63.328 77.9725 63.12C78.3192 62.9067 78.5858 62.6 78.7725 62.2L80.6765 62.776C80.3458 63.5547 79.8338 64.16 79.1405 64.592C78.4525 65.024 77.6925 65.24 76.8605 65.24ZM73.8845 61.216V59.76H79.8285V61.216H73.8845ZM84.581 65L81.445 56.36H83.373L85.549 62.624L87.717 56.36H89.653L86.517 65H84.581ZM94.7043 65.24C93.8296 65.24 93.0616 65.0507 92.4003 64.672C91.7389 64.2933 91.2216 63.768 90.8483 63.096C90.4803 62.424 90.2963 61.6507 90.2963 60.776C90.2963 59.832 90.4776 59.0133 90.8403 58.32C91.2029 57.6213 91.7069 57.08 92.3523 56.696C92.9976 56.312 93.7443 56.12 94.5923 56.12C95.4883 56.12 96.2483 56.3307 96.8723 56.752C97.5016 57.168 97.9683 57.7573 98.2723 58.52C98.5763 59.2827 98.6909 60.1813 98.6163 61.216H96.7043V60.512C96.6989 59.5733 96.5336 58.888 96.2083 58.456C95.8829 58.024 95.3709 57.808 94.6723 57.808C93.8829 57.808 93.2963 58.0533 92.9123 58.544C92.5283 59.0293 92.3363 59.7413 92.3363 60.68C92.3363 61.5547 92.5283 62.232 92.9123 62.712C93.2963 63.192 93.8563 63.432 94.5923 63.432C95.0669 63.432 95.4749 63.328 95.8163 63.12C96.1629 62.9067 96.4296 62.6 96.6163 62.2L98.5203 62.776C98.1896 63.5547 97.6776 64.16 96.9843 64.592C96.2963 65.024 95.5363 65.24 94.7043 65.24ZM91.7283 61.216V59.76H97.6723V61.216H91.7283ZM100.401 65V56.36H102.105V58.464L101.897 58.192C102.004 57.904 102.145 57.6427 102.321 57.408C102.503 57.168 102.719 56.9707 102.969 56.816C103.183 56.672 103.417 56.56 103.673 56.48C103.935 56.3947 104.201 56.344 104.473 56.328C104.745 56.3067 105.009 56.3173 105.265 56.36V58.16C105.009 58.0853 104.713 58.0613 104.377 58.088C104.047 58.1147 103.748 58.208 103.481 58.368C103.215 58.512 102.996 58.696 102.825 58.92C102.66 59.144 102.537 59.4 102.457 59.688C102.377 59.9707 102.337 60.2773 102.337 60.608V65H100.401Z" fill="#1E293B"/>
</svg>
