<svg width="166" height="88" viewBox="0 0 166 88" fill="none" xmlns="http://www.w3.org/2000/svg">
<rect x="0.5" y="0.5" width="165" height="87" rx="11.5" fill="white"/>
<rect x="0.5" y="0.5" width="165" height="87" rx="11.5" stroke="#E4E4E7"/>
<path d="M80.6471 21.333L81.9299 19.1266L82.9714 17.3039C83.0482 17.1695 83.2419 17.1695 83.3187 17.3039L84.3603 19.1266L86.1994 22.4218C89.7897 28.8543 93.0009 38.8566 85.8638 40.6814C85.064 40.8858 84.1616 41 83.1451 41C82.6128 41 82.1107 40.9687 81.6373 40.9095C73.4567 39.8868 76.5033 28.4602 80.6471 21.333Z" stroke="black" stroke-width="2"/>
<path d="M83.2068 33.0267C81.0781 34.8863 79.0254 33.8016 78.2651 33.0267C77.6316 35.3512 77.7329 40 83.2068 40C88.6807 40 89.2889 35.3512 88.9087 33.0267C87.8951 32.2519 85.3355 31.1672 83.2068 33.0267Z" fill="black" stroke="black" stroke-width="2"/>
<path d="M59.5809 65V53.48H64.3409C64.4529 53.48 64.5969 53.4853 64.7729 53.496C64.9489 53.5013 65.1116 53.5173 65.2609 53.544C65.9276 53.6453 66.4769 53.8667 66.9089 54.208C67.3463 54.5493 67.6689 54.9813 67.8769 55.504C68.0903 56.0213 68.1969 56.5973 68.1969 57.232C68.1969 58.1707 67.9596 58.9787 67.4849 59.656C67.0103 60.328 66.2823 60.744 65.3009 60.904L64.4769 60.976H61.5089V65H59.5809ZM66.1969 65L63.9249 60.312L65.8849 59.88L68.3809 65H66.1969ZM61.5089 59.176H64.2609C64.3676 59.176 64.4876 59.1707 64.6209 59.16C64.7543 59.1493 64.8769 59.128 64.9889 59.096C65.3089 59.016 65.5596 58.8747 65.7409 58.672C65.9276 58.4693 66.0583 58.24 66.1329 57.984C66.2129 57.728 66.2529 57.4773 66.2529 57.232C66.2529 56.9867 66.2129 56.736 66.1329 56.48C66.0583 56.2187 65.9276 55.9867 65.7409 55.784C65.5596 55.5813 65.3089 55.44 64.9889 55.36C64.8769 55.328 64.7543 55.3093 64.6209 55.304C64.4876 55.2933 64.3676 55.288 64.2609 55.288H61.5089V59.176ZM72.5594 65.24C71.9354 65.24 71.4074 65.1227 70.9754 64.888C70.5434 64.648 70.2154 64.3307 69.9914 63.936C69.7728 63.5413 69.6634 63.1067 69.6634 62.632C69.6634 62.216 69.7328 61.8427 69.8714 61.512C70.0101 61.176 70.2234 60.888 70.5114 60.648C70.7994 60.4027 71.1728 60.2027 71.6314 60.048C71.9781 59.936 72.3834 59.8347 72.8474 59.744C73.3168 59.6533 73.8234 59.5707 74.3674 59.496C74.9168 59.416 75.4901 59.3307 76.0874 59.24L75.3994 59.632C75.4048 59.0347 75.2714 58.5947 74.9994 58.312C74.7274 58.0293 74.2688 57.888 73.6234 57.888C73.2341 57.888 72.8581 57.9787 72.4954 58.16C72.1328 58.3413 71.8794 58.6533 71.7354 59.096L69.9754 58.544C70.1888 57.8133 70.5941 57.2267 71.1914 56.784C71.7941 56.3413 72.6048 56.12 73.6234 56.12C74.3914 56.12 75.0661 56.2453 75.6474 56.496C76.2341 56.7467 76.6688 57.1573 76.9514 57.728C77.1061 58.032 77.1994 58.344 77.2314 58.664C77.2634 58.9787 77.2794 59.3227 77.2794 59.696V65H75.5914V63.128L75.8714 63.432C75.4821 64.056 75.0261 64.5147 74.5034 64.808C73.9861 65.096 73.3381 65.24 72.5594 65.24ZM72.9434 63.704C73.3808 63.704 73.7541 63.6267 74.0634 63.472C74.3728 63.3173 74.6181 63.128 74.7994 62.904C74.9861 62.68 75.1114 62.4693 75.1754 62.272C75.2768 62.0267 75.3328 61.7467 75.3434 61.432C75.3594 61.112 75.3674 60.8533 75.3674 60.656L75.9594 60.832C75.3781 60.9227 74.8794 61.0027 74.4634 61.072C74.0474 61.1413 73.6901 61.208 73.3914 61.272C73.0928 61.3307 72.8288 61.3973 72.5994 61.472C72.3754 61.552 72.1861 61.6453 72.0314 61.752C71.8768 61.8587 71.7568 61.9813 71.6714 62.12C71.5914 62.2587 71.5514 62.4213 71.5514 62.608C71.5514 62.8213 71.6048 63.0107 71.7114 63.176C71.8181 63.336 71.9728 63.464 72.1754 63.56C72.3834 63.656 72.6394 63.704 72.9434 63.704ZM79.3622 65V56.36H81.0662V58.464L80.8582 58.192C80.9649 57.904 81.1062 57.6427 81.2822 57.408C81.4635 57.168 81.6795 56.9707 81.9302 56.816C82.1435 56.672 82.3782 56.56 82.6342 56.48C82.8955 56.3947 83.1622 56.344 83.4342 56.328C83.7062 56.3067 83.9702 56.3173 84.2262 56.36V58.16C83.9702 58.0853 83.6742 58.0613 83.3382 58.088C83.0075 58.1147 82.7089 58.208 82.4422 58.368C82.1755 58.512 81.9569 58.696 81.7862 58.92C81.6209 59.144 81.4982 59.4 81.4182 59.688C81.3382 59.9707 81.2982 60.2773 81.2982 60.608V65H79.3622ZM89.5246 65.24C88.6499 65.24 87.8819 65.0507 87.2206 64.672C86.5592 64.2933 86.0419 63.768 85.6686 63.096C85.3006 62.424 85.1166 61.6507 85.1166 60.776C85.1166 59.832 85.2979 59.0133 85.6606 58.32C86.0232 57.6213 86.5272 57.08 87.1726 56.696C87.8179 56.312 88.5646 56.12 89.4126 56.12C90.3086 56.12 91.0686 56.3307 91.6926 56.752C92.3219 57.168 92.7886 57.7573 93.0926 58.52C93.3966 59.2827 93.5112 60.1813 93.4366 61.216H91.5246V60.512C91.5192 59.5733 91.3539 58.888 91.0286 58.456C90.7032 58.024 90.1912 57.808 89.4926 57.808C88.7032 57.808 88.1166 58.0533 87.7326 58.544C87.3486 59.0293 87.1566 59.7413 87.1566 60.68C87.1566 61.5547 87.3486 62.232 87.7326 62.712C88.1166 63.192 88.6766 63.432 89.4126 63.432C89.8872 63.432 90.2952 63.328 90.6366 63.12C90.9832 62.9067 91.2499 62.6 91.4366 62.2L93.3406 62.776C93.0099 63.5547 92.4979 64.16 91.8046 64.592C91.1166 65.024 90.3566 65.24 89.5246 65.24ZM86.5486 61.216V59.76H92.4926V61.216H86.5486ZM95.3816 65V53.24H97.3096V65H95.3816ZM100.842 68.84L102.506 64.272L102.538 65.616L98.7699 56.36H100.778L103.45 63.208H102.938L105.538 56.36H107.466L102.65 68.84H100.842Z" fill="#1E293B"/>
</svg>
