<svg width="166" height="88" viewBox="0 0 166 88" fill="none" xmlns="http://www.w3.org/2000/svg">
<rect x="0.5" y="0.5" width="165" height="87" rx="11.5" fill="white"/>
<rect x="0.5" y="0.5" width="165" height="87" rx="11.5" stroke="#E4E4E7"/>
<circle cx="83" cy="31" r="11" stroke="black" stroke-width="2"/>
<line x1="82" y1="31" x2="94" y2="31" stroke="black" stroke-width="2"/>
<line x1="83" y1="43" x2="83" y2="30" stroke="black" stroke-width="2"/>
<path d="M44.2746 67.24C43.432 67.24 42.672 67.0933 41.9946 66.8C41.3226 66.5067 40.768 66.088 40.3306 65.544C39.8986 64.9947 39.624 64.344 39.5066 63.592L41.5066 63.288C41.6773 63.9707 42.0266 64.4987 42.5546 64.872C43.088 65.2453 43.7013 65.432 44.3946 65.432C44.8053 65.432 45.192 65.368 45.5546 65.24C45.9173 65.112 46.2106 64.9253 46.4346 64.68C46.664 64.4347 46.7786 64.1333 46.7786 63.776C46.7786 63.616 46.752 63.4693 46.6986 63.336C46.6453 63.1973 46.5653 63.0747 46.4586 62.968C46.3573 62.8613 46.224 62.7653 46.0586 62.68C45.8986 62.5893 45.712 62.512 45.4986 62.448L42.5226 61.568C42.2666 61.4933 41.9893 61.3947 41.6906 61.272C41.3973 61.144 41.1173 60.9707 40.8506 60.752C40.5893 60.528 40.3733 60.2453 40.2026 59.904C40.0373 59.5573 39.9546 59.1307 39.9546 58.624C39.9546 57.8827 40.1413 57.2613 40.5146 56.76C40.8933 56.2533 41.4 55.8747 42.0346 55.624C42.6746 55.3733 43.384 55.2507 44.1626 55.256C44.952 55.2613 45.656 55.3973 46.2746 55.664C46.8933 55.9253 47.4106 56.3067 47.8266 56.808C48.2426 57.3093 48.536 57.9147 48.7066 58.624L46.6346 58.984C46.5493 58.5787 46.384 58.2347 46.1386 57.952C45.8986 57.664 45.6026 57.4453 45.2506 57.296C44.904 57.1467 44.5333 57.0667 44.1386 57.056C43.7546 57.0507 43.3973 57.1093 43.0666 57.232C42.7413 57.3493 42.4773 57.52 42.2746 57.744C42.0773 57.968 41.9786 58.2293 41.9786 58.528C41.9786 58.8107 42.064 59.0427 42.2346 59.224C42.4053 59.4 42.616 59.5413 42.8666 59.648C43.1226 59.7493 43.3813 59.8347 43.6426 59.904L45.7066 60.48C45.9893 60.5547 46.3066 60.656 46.6586 60.784C47.0106 60.912 47.3493 61.0907 47.6746 61.32C48 61.5493 48.2666 61.8507 48.4746 62.224C48.688 62.5973 48.7946 63.072 48.7946 63.648C48.7946 64.2453 48.6693 64.7707 48.4186 65.224C48.1733 65.672 47.84 66.0453 47.4186 66.344C46.9973 66.6427 46.5146 66.8667 45.9706 67.016C45.432 67.1653 44.8666 67.24 44.2746 67.24ZM54.3423 67.24C53.4783 67.24 52.7236 67.0453 52.0783 66.656C51.4329 66.2667 50.9316 65.7307 50.5743 65.048C50.2223 64.36 50.0463 63.5707 50.0463 62.68C50.0463 61.7733 50.2276 60.9787 50.5903 60.296C50.9529 59.6133 51.4569 59.08 52.1023 58.696C52.7476 58.312 53.4943 58.12 54.3423 58.12C55.2116 58.12 55.9689 58.3147 56.6143 58.704C57.2596 59.0933 57.7609 59.632 58.1183 60.32C58.4756 61.0027 58.6543 61.7893 58.6543 62.68C58.6543 63.576 58.4729 64.368 58.1103 65.056C57.7529 65.7387 57.2516 66.2747 56.6063 66.664C55.9609 67.048 55.2063 67.24 54.3423 67.24ZM54.3423 65.432C55.1103 65.432 55.6809 65.176 56.0543 64.664C56.4276 64.152 56.6143 63.4907 56.6143 62.68C56.6143 61.8427 56.4249 61.176 56.0463 60.68C55.6676 60.1787 55.0996 59.928 54.3423 59.928C53.8249 59.928 53.3983 60.0453 53.0623 60.28C52.7316 60.5093 52.4863 60.832 52.3263 61.248C52.1663 61.6587 52.0863 62.136 52.0863 62.68C52.0863 63.5173 52.2756 64.1867 52.6543 64.688C53.0383 65.184 53.6009 65.432 54.3423 65.432ZM70.7929 67V61.752C70.7929 61.16 70.6462 60.6987 70.3529 60.368C70.0595 60.032 69.6622 59.864 69.1609 59.864C68.8515 59.864 68.5742 59.936 68.3289 60.08C68.0835 60.2187 67.8889 60.4267 67.7449 60.704C67.6009 60.976 67.5289 61.3013 67.5289 61.68L66.6729 61.176C66.6675 60.5787 66.8009 60.0533 67.0729 59.6C67.3502 59.1413 67.7235 58.784 68.1929 58.528C68.6622 58.272 69.1849 58.144 69.7609 58.144C70.7155 58.144 71.4462 58.432 71.9529 59.008C72.4649 59.5787 72.7209 60.3307 72.7209 61.264V67H70.7929ZM60.4009 67V58.36H62.1049V61.04H62.3449V67H60.4009ZM65.6089 67V61.776C65.6089 61.1733 65.4622 60.704 65.1689 60.368C64.8755 60.032 64.4755 59.864 63.9689 59.864C63.4782 59.864 63.0835 60.032 62.7849 60.368C62.4915 60.704 62.3449 61.1413 62.3449 61.68L61.4809 61.104C61.4809 60.544 61.6195 60.04 61.8969 59.592C62.1742 59.144 62.5475 58.792 63.0169 58.536C63.4915 58.2747 64.0222 58.144 64.6089 58.144C65.2542 58.144 65.7929 58.2827 66.2249 58.56C66.6622 58.832 66.9875 59.2053 67.2009 59.68C67.4195 60.1493 67.5289 60.68 67.5289 61.272V67H65.6089ZM78.5949 67.24C77.7202 67.24 76.9522 67.0507 76.2909 66.672C75.6295 66.2933 75.1122 65.768 74.7389 65.096C74.3709 64.424 74.1869 63.6507 74.1869 62.776C74.1869 61.832 74.3682 61.0133 74.7309 60.32C75.0935 59.6213 75.5975 59.08 76.2429 58.696C76.8882 58.312 77.6349 58.12 78.4829 58.12C79.3789 58.12 80.1389 58.3307 80.7629 58.752C81.3922 59.168 81.8589 59.7573 82.1629 60.52C82.4669 61.2827 82.5815 62.1813 82.5069 63.216H80.5949V62.512C80.5895 61.5733 80.4242 60.888 80.0989 60.456C79.7735 60.024 79.2615 59.808 78.5629 59.808C77.7735 59.808 77.1869 60.0533 76.8029 60.544C76.4189 61.0293 76.2269 61.7413 76.2269 62.68C76.2269 63.5547 76.4189 64.232 76.8029 64.712C77.1869 65.192 77.7469 65.432 78.4829 65.432C78.9575 65.432 79.3655 65.328 79.7069 65.12C80.0535 64.9067 80.3202 64.6 80.5069 64.2L82.4109 64.776C82.0802 65.5547 81.5682 66.16 80.8749 66.592C80.1869 67.024 79.4269 67.24 78.5949 67.24ZM75.6189 63.216V61.76H81.5629V63.216H75.6189ZM89.3559 67C88.7852 67.1067 88.2252 67.152 87.6759 67.136C87.1319 67.1253 86.6439 67.0267 86.2119 66.84C85.7799 66.648 85.4519 66.3467 85.2279 65.936C85.0305 65.5627 84.9265 65.1813 84.9159 64.792C84.9052 64.4027 84.8999 63.9627 84.8999 63.472V55.96H86.8199V63.36C86.8199 63.7067 86.8225 64.0107 86.8279 64.272C86.8385 64.5333 86.8945 64.7467 86.9959 64.912C87.1879 65.232 87.4945 65.4107 87.9159 65.448C88.3372 65.4853 88.8172 65.464 89.3559 65.384V67ZM83.3319 59.872V58.36H89.3559V59.872H83.3319ZM91.3738 57.048V55.28H93.3018V57.048H91.3738ZM91.3738 67V58.36H93.3018V67H91.3738ZM106.074 67V61.752C106.074 61.16 105.927 60.6987 105.634 60.368C105.341 60.032 104.943 59.864 104.442 59.864C104.133 59.864 103.855 59.936 103.61 60.08C103.365 60.2187 103.17 60.4267 103.026 60.704C102.882 60.976 102.81 61.3013 102.81 61.68L101.954 61.176C101.949 60.5787 102.082 60.0533 102.354 59.6C102.631 59.1413 103.005 58.784 103.474 58.528C103.943 58.272 104.466 58.144 105.042 58.144C105.997 58.144 106.727 58.432 107.234 59.008C107.746 59.5787 108.002 60.3307 108.002 61.264V67H106.074ZM95.6821 67V58.36H97.3861V61.04H97.6261V67H95.6821ZM100.89 67V61.776C100.89 61.1733 100.743 60.704 100.45 60.368C100.157 60.032 99.7568 59.864 99.2501 59.864C98.7595 59.864 98.3648 60.032 98.0661 60.368C97.7728 60.704 97.6261 61.1413 97.6261 61.68L96.7621 61.104C96.7621 60.544 96.9008 60.04 97.1781 59.592C97.4555 59.144 97.8288 58.792 98.2981 58.536C98.7728 58.2747 99.3035 58.144 99.8901 58.144C100.535 58.144 101.074 58.2827 101.506 58.56C101.943 58.832 102.269 59.2053 102.482 59.68C102.701 60.1493 102.81 60.68 102.81 61.272V67H100.89ZM113.876 67.24C113.001 67.24 112.233 67.0507 111.572 66.672C110.911 66.2933 110.393 65.768 110.02 65.096C109.652 64.424 109.468 63.6507 109.468 62.776C109.468 61.832 109.649 61.0133 110.012 60.32C110.375 59.6213 110.879 59.08 111.524 58.696C112.169 58.312 112.916 58.12 113.764 58.12C114.66 58.12 115.42 58.3307 116.044 58.752C116.673 59.168 117.14 59.7573 117.444 60.52C117.748 61.2827 117.863 62.1813 117.788 63.216H115.876V62.512C115.871 61.5733 115.705 60.888 115.38 60.456C115.055 60.024 114.543 59.808 113.844 59.808C113.055 59.808 112.468 60.0533 112.084 60.544C111.7 61.0293 111.508 61.7413 111.508 62.68C111.508 63.5547 111.7 64.232 112.084 64.712C112.468 65.192 113.028 65.432 113.764 65.432C114.239 65.432 114.647 65.328 114.988 65.12C115.335 64.9067 115.601 64.6 115.788 64.2L117.692 64.776C117.361 65.5547 116.849 66.16 116.156 66.592C115.468 67.024 114.708 67.24 113.876 67.24ZM110.9 63.216V61.76H116.844V63.216H110.9ZM122.909 67.24C121.842 67.24 120.976 67 120.309 66.52C119.642 66.04 119.237 65.3653 119.093 64.496L121.061 64.192C121.162 64.6187 121.386 64.9547 121.733 65.2C122.08 65.4453 122.517 65.568 123.045 65.568C123.509 65.568 123.866 65.4773 124.117 65.296C124.373 65.1093 124.501 64.856 124.501 64.536C124.501 64.3387 124.453 64.1813 124.357 64.064C124.266 63.9413 124.064 63.824 123.749 63.712C123.434 63.6 122.952 63.4587 122.301 63.288C121.576 63.096 121 62.8907 120.573 62.672C120.146 62.448 119.84 62.184 119.653 61.88C119.466 61.576 119.373 61.208 119.373 60.776C119.373 60.2373 119.514 59.768 119.797 59.368C120.08 58.968 120.474 58.6613 120.981 58.448C121.488 58.2293 122.085 58.12 122.773 58.12C123.445 58.12 124.04 58.224 124.557 58.432C125.08 58.64 125.501 58.936 125.821 59.32C126.141 59.704 126.338 60.1547 126.413 60.672L124.445 61.024C124.397 60.656 124.229 60.3653 123.941 60.152C123.658 59.9387 123.28 59.8187 122.805 59.792C122.352 59.7653 121.986 59.8347 121.709 60C121.432 60.16 121.293 60.3867 121.293 60.68C121.293 60.8453 121.349 60.9867 121.461 61.104C121.573 61.2213 121.797 61.3387 122.133 61.456C122.474 61.5733 122.981 61.7173 123.653 61.888C124.341 62.064 124.89 62.2667 125.301 62.496C125.717 62.72 126.016 62.9893 126.197 63.304C126.384 63.6187 126.477 64 126.477 64.448C126.477 65.3173 126.16 66 125.525 66.496C124.896 66.992 124.024 67.24 122.909 67.24Z" fill="#1E293B"/>
</svg>
